<svg xmlns="http://www.w3.org/2000/svg" width="1151.91" height="256" viewBox="0 0 1151.91 256" role="img" aria-label="SemanticDB horizontal">
<title>SemanticDB horizontal</title>
<g fill="#ffffff">
<g transform="translate(0 0) scale(0.25)">
  <g transform="translate(-116 -103)">
    <path fill-rule="evenodd" d="M 266 998 C 214 971 181 918 182 853 C 180 774 222 721 283 662 C 344 603 391 569 426 509 C 455 459 464 395 478 337 C 496 260 554 209 627 209 C 700 208 750 250 770 329 C 788 400 799 462 831 522 C 866 590 909 639 974 690 C 1039 740 1075 785 1074 852 C 1074 923 1027 975 958 1000 C 873 1032 771 1026 682 1008 C 589 989 519 958 469 911 C 438 882 399 862 357 862 C 302 861 260 884 244 921 C 231 949 239 978 266 998 Z M 305 696 C 352 628 393 586 448 541 C 513 486 566 440 633 440 C 701 438 755 477 790 535 C 814 575 829 625 858 662 C 885 697 923 720 965 736 C 899 733 834 747 793 773 C 762 793 752 813 758 844 C 764 872 776 895 759 919 C 742 946 706 961 674 960 C 613 962 557 930 519 884 C 492 851 476 810 454 769 C 435 731 409 704 374 694 C 350 686 329 688 305 696 Z M 578 281 C 607 279 645 279 673 282 C 711 284 737 309 738 342 C 740 377 712 408 678 409 L 578 409 C 544 409 517 382 516 350 C 514 315 541 285 578 281 Z M 343 725 C 379 724 408 751 409 786 C 410 820 381 847 346 847 C 309 848 279 823 279 790 C 277 755 306 727 343 725 Z M 790 815 C 788 791 845 770 909 769 C 976 767 1035 783 1037 807 C 1039 832 982 853 918 855 C 851 858 793 840 790 815 Z M 1037 867 C 1010 890 965 899 920 899 C 883 899 848 892 826 890 C 806 888 794 897 793 911 C 790 937 829 956 878 959 C 936 963 989 948 1016 920 C 1030 906 1039 887 1037 867 Z"/>
    <circle cx="577.5" cy="349" r="23.5"/>
    <circle cx="676.5" cy="349" r="23.5"/>
  </g>
</g>
<path transform="translate(280 72) scale(0.94086)" d="M66.240 26.560Q63.040 22.400 57.200 19.600Q51.360 16.800 45.440 16.800Q41.920 16.800 38.400 17.680Q34.880 18.560 32.000 20.400Q29.120 22.240 27.280 25.200Q25.440 28.160 25.440 32.320Q25.440 36.160 27.040 38.880Q28.640 41.600 31.440 43.520Q34.240 45.440 38.240 46.880Q42.240 48.320 47.040 49.760Q52.480 51.520 58.320 53.760Q64.160 56.000 69.040 59.680Q73.920 63.360 77.040 68.960Q80.160 74.560 80.160 82.880Q80.160 92.000 76.800 98.800Q73.440 105.600 67.840 110.080Q62.240 114.560 54.720 116.800Q47.200 119.040 38.880 119.040Q27.840 119.040 17.280 114.960Q6.720 110.880 0.000 102.880L14.400 89.440Q18.560 95.200 25.520 98.560Q32.480 101.920 39.200 101.920Q42.720 101.920 46.400 101.040Q50.080 100.160 53.040 98.080Q56.000 96.000 57.840 92.880Q59.680 89.760 59.680 85.120Q59.680 80.640 57.600 77.680Q55.520 74.720 52.000 72.560Q48.480 70.400 43.680 68.800Q38.880 67.200 33.600 65.440Q28.480 63.840 23.360 61.600Q18.240 59.360 14.160 55.680Q10.080 52.000 7.520 46.640Q4.960 41.280 4.960 33.280Q4.960 24.640 8.560 18.400Q12.160 12.160 18.000 8.080Q23.840 4.000 31.280 2.000Q38.720 0.000 46.400 0.000Q55.040 0.000 63.920 3.040Q72.800 6.080 79.360 12.160ZM153.440 70.080Q153.440 66.400 152.400 63.040Q151.360 59.680 149.120 57.120Q146.880 54.560 143.440 53.040Q140.000 51.520 135.360 51.520Q126.720 51.520 120.720 56.720Q114.720 61.920 114.080 70.080ZM172.640 78.720Q172.640 80.000 172.640 81.280Q172.640 82.560 172.480 83.840L114.080 83.840Q114.400 88.000 116.240 91.440Q118.080 94.880 121.120 97.360Q124.160 99.840 128.000 101.280Q131.840 102.720 136.000 102.720Q143.200 102.720 148.160 100.080Q153.120 97.440 156.320 92.800L169.120 103.040Q157.760 118.400 136.160 118.400Q127.200 118.400 119.680 115.600Q112.160 112.800 106.640 107.680Q101.120 102.560 98.000 95.120Q94.880 87.680 94.880 78.240Q94.880 68.960 98.000 61.360Q101.120 53.760 106.560 48.400Q112.000 43.040 119.440 40.080Q126.880 37.120 135.520 37.120Q143.520 37.120 150.320 39.760Q157.120 42.400 162.080 47.600Q167.040 52.800 169.840 60.560Q172.640 68.320 172.640 78.720ZM282.880 37.120Q290.400 37.120 295.760 39.760Q301.120 42.400 304.560 46.720Q308.000 51.040 309.600 56.640Q311.200 62.240 311.200 68.160L311.200 116.160L292.000 116.160L292.000 73.600Q292.000 70.240 291.520 66.560Q291.040 62.880 289.440 59.920Q287.840 56.960 285.040 55.040Q282.240 53.120 277.600 53.120Q273.120 53.120 269.920 55.040Q266.720 56.960 264.640 60.000Q262.560 63.040 261.600 66.800Q260.640 70.560 260.640 74.240L260.640 116.160L241.440 116.160L241.440 69.760Q241.440 62.560 238.000 57.840Q234.560 53.120 227.200 53.120Q222.880 53.120 219.680 54.960Q216.480 56.800 214.480 59.680Q212.480 62.560 211.440 66.320Q210.400 70.080 210.400 73.920L210.400 116.160L191.200 116.160L191.200 39.360L209.440 39.360L209.440 51.680L209.760 51.680Q211.040 48.800 213.200 46.240Q215.360 43.680 218.320 41.600Q221.280 39.520 225.120 38.320Q228.960 37.120 233.600 37.120Q242.560 37.120 248.480 41.120Q254.400 45.120 257.600 51.680Q261.440 44.640 267.840 40.880Q274.240 37.120 282.880 37.120ZM381.280 106.400L380.800 106.400Q377.920 111.520 371.520 114.800Q365.120 118.080 356.960 118.080Q352.320 118.080 347.280 116.880Q342.240 115.680 338.000 112.880Q333.760 110.080 330.960 105.520Q328.160 100.960 328.160 94.240Q328.160 85.600 333.040 80.480Q337.920 75.360 345.600 72.640Q353.280 69.920 362.640 69.040Q372.000 68.160 380.960 68.160L380.960 66.240Q380.960 59.040 375.760 55.600Q370.560 52.160 363.360 52.160Q357.280 52.160 351.680 54.720Q346.080 57.280 342.400 60.960L332.480 49.280Q339.040 43.200 347.600 40.160Q356.160 37.120 364.960 37.120Q375.200 37.120 381.840 40.000Q388.480 42.880 392.320 47.520Q396.160 52.160 397.680 57.920Q399.200 63.680 399.200 69.440L399.200 116.160L381.280 116.160ZM380.960 81.120L376.640 81.120Q372.000 81.120 366.880 81.520Q361.760 81.920 357.440 83.280Q353.120 84.640 350.240 87.120Q347.360 89.600 347.360 93.920Q347.360 96.640 348.560 98.480Q349.760 100.320 351.680 101.440Q353.600 102.560 356.000 103.040Q358.400 103.520 360.800 103.520Q370.720 103.520 375.840 98.240Q380.960 92.960 380.960 83.840ZM421.600 39.360L439.840 39.360L439.840 51.680L440.160 51.680Q442.720 45.920 449.040 41.520Q455.360 37.120 464.000 37.120Q471.520 37.120 476.880 39.760Q482.240 42.400 485.680 46.720Q489.120 51.040 490.720 56.640Q492.320 62.240 492.320 68.160L492.320 116.160L473.120 116.160L473.120 73.600Q473.120 70.240 472.640 66.560Q472.160 62.880 470.560 59.920Q468.960 56.960 466.160 55.040Q463.360 53.120 458.720 53.120Q454.080 53.120 450.720 54.960Q447.360 56.800 445.200 59.680Q443.040 62.560 441.920 66.320Q440.800 70.080 440.800 73.920L440.800 116.160L421.600 116.160ZM503.680 54.720L503.680 39.360L517.120 39.360L517.120 17.120L536.000 17.120L536.000 39.360L555.200 39.360L555.200 54.720L536.000 54.720L536.000 90.400Q536.000 95.520 537.840 98.880Q539.680 102.240 546.080 102.240Q548.000 102.240 550.240 101.840Q552.480 101.440 554.240 100.640L554.880 115.680Q552.320 116.640 548.800 117.200Q545.280 117.760 542.080 117.760Q534.400 117.760 529.600 115.600Q524.800 113.440 522.000 109.680Q519.200 105.920 518.160 101.040Q517.120 96.160 517.120 90.560L517.120 54.720ZM569.440 39.360L588.640 39.360L588.640 116.160L569.440 116.160ZM566.720 13.280Q566.720 8.640 570.160 5.200Q573.600 1.760 578.880 1.760Q584.160 1.760 587.760 5.040Q591.360 8.320 591.360 13.280Q591.360 18.240 587.760 21.520Q584.160 24.800 578.880 24.800Q573.600 24.800 570.160 21.360Q566.720 17.920 566.720 13.280ZM664.480 60.640Q662.240 57.440 657.760 55.280Q653.280 53.120 648.640 53.120Q643.360 53.120 639.360 55.280Q635.360 57.440 632.720 60.960Q630.080 64.480 628.800 68.880Q627.520 73.280 627.520 77.760Q627.520 82.240 628.880 86.640Q630.240 91.040 632.960 94.560Q635.680 98.080 639.760 100.240Q643.840 102.400 649.280 102.400Q653.760 102.400 658.240 100.640Q662.720 98.880 665.440 95.520L677.440 107.680Q672.640 112.800 665.200 115.600Q657.760 118.400 649.120 118.400Q640.640 118.400 633.040 115.680Q625.440 112.960 619.760 107.680Q614.080 102.400 610.800 94.880Q607.520 87.360 607.520 77.760Q607.520 68.480 610.800 60.960Q614.080 53.440 619.680 48.160Q625.280 42.880 632.720 40.000Q640.160 37.120 648.640 37.120Q657.120 37.120 665.040 40.320Q672.960 43.520 677.600 49.120ZM691.040 2.880L731.200 2.880Q742.240 2.880 753.440 5.760Q764.640 8.640 773.600 15.280Q782.560 21.920 788.160 32.720Q793.760 43.520 793.760 59.520Q793.760 74.400 788.160 85.120Q782.560 95.840 773.600 102.720Q764.640 109.600 753.440 112.880Q742.240 116.160 731.200 116.160L691.040 116.160ZM728.000 98.560Q735.840 98.560 743.680 96.720Q751.520 94.880 757.840 90.480Q764.160 86.080 768.160 78.560Q772.160 71.040 772.160 59.520Q772.160 47.360 768.160 39.680Q764.160 32.000 757.840 27.680Q751.520 23.360 743.680 21.760Q735.840 20.160 728.000 20.160L711.200 20.160L711.200 98.560ZM813.280 2.880L857.440 2.880Q863.840 2.880 870.080 4.400Q876.320 5.920 881.200 9.360Q886.080 12.800 889.120 18.240Q892.160 23.680 892.160 31.360Q892.160 40.960 886.720 47.200Q881.280 53.440 872.480 56.160L872.480 56.480Q883.200 57.920 890.080 64.800Q896.960 71.680 896.960 83.200Q896.960 92.480 893.280 98.800Q889.600 105.120 883.600 108.960Q877.600 112.800 869.840 114.480Q862.080 116.160 854.080 116.160L813.280 116.160ZM833.440 48.960L851.360 48.960Q861.440 48.960 866.720 44.960Q872.000 40.960 872.000 33.600Q872.000 25.920 866.560 22.720Q861.120 19.520 849.600 19.520L833.440 19.520ZM833.440 99.200L851.520 99.200Q855.360 99.200 859.840 98.640Q864.320 98.080 868.080 96.320Q871.840 94.560 874.320 91.200Q876.800 87.840 876.800 82.240Q876.800 73.280 870.720 69.760Q864.640 66.240 852.320 66.240L833.440 66.240Z"/>
</g>
</svg>
